<svg width="450" height="463" viewBox="0 0 450 463" fill="none" xmlns="http://www.w3.org/2000/svg">
<rect width="450" height="463" fill="#E5E5E5"/>
<g filter="url(#filter0_d_1669_162202)">
<mask id="path-1-outside-1_1669_162202" maskUnits="userSpaceOnUse" x="100" y="136" width="85" height="95" fill="black">
<rect fill="white" x="100" y="136" width="85" height="95"/>
<path d="M141.163 178.208L171.243 220.448L183.531 224.16L182.891 229.28L167.275 228L147.819 229.28L148.075 224.16L157.675 221.728L152.555 212.768L134.251 186.528L124.011 187.808L124.651 221.6L135.147 224.16L134.507 229.28L118.891 228L101.355 229.28L101.611 224.16L112.235 221.6L113.131 184.992L112.107 144.8L101.995 142.24L102.635 137.12L118.251 138.4L135.787 137.12L135.531 142.24L124.779 144.8L123.883 181.92L131.435 180.768L153.835 152.48L158.059 144.288L149.995 142.24L150.635 137.12L166.507 138.4L179.819 137.12L179.563 142.24L167.275 146.464L141.163 178.208Z"/>
</mask>
<path d="M141.163 178.208L171.243 220.448L183.531 224.16L182.891 229.28L167.275 228L147.819 229.28L148.075 224.16L157.675 221.728L152.555 212.768L134.251 186.528L124.011 187.808L124.651 221.6L135.147 224.16L134.507 229.28L118.891 228L101.355 229.28L101.611 224.16L112.235 221.6L113.131 184.992L112.107 144.8L101.995 142.24L102.635 137.12L118.251 138.4L135.787 137.12L135.531 142.24L124.779 144.8L123.883 181.92L131.435 180.768L153.835 152.48L158.059 144.288L149.995 142.24L150.635 137.12L166.507 138.4L179.819 137.12L179.563 142.24L167.275 146.464L141.163 178.208Z" fill="black"/>
<path d="M141.163 178.208L140.391 177.573L139.904 178.164L140.348 178.788L141.163 178.208ZM171.243 220.448L170.428 221.028L170.627 221.306L170.954 221.405L171.243 220.448ZM183.531 224.16L184.523 224.284L184.628 223.447L183.82 223.203L183.531 224.16ZM182.891 229.28L182.809 230.277L183.764 230.355L183.883 229.404L182.891 229.28ZM167.275 228L167.357 227.003L167.283 226.997L167.209 227.002L167.275 228ZM147.819 229.28L146.82 229.23L146.764 230.352L147.885 230.278L147.819 229.28ZM148.075 224.16L147.829 223.191L147.113 223.372L147.076 224.11L148.075 224.16ZM157.675 221.728L157.921 222.697L159.196 222.374L158.543 221.232L157.675 221.728ZM152.555 212.768L153.423 212.272L153.401 212.233L153.375 212.196L152.555 212.768ZM134.251 186.528L135.071 185.956L134.726 185.461L134.127 185.536L134.251 186.528ZM124.011 187.808L123.887 186.816L122.994 186.927L123.011 187.827L124.011 187.808ZM124.651 221.6L123.651 221.619L123.666 222.389L124.414 222.572L124.651 221.6ZM135.147 224.16L136.139 224.284L136.25 223.4L135.384 223.188L135.147 224.16ZM134.507 229.28L134.425 230.277L135.38 230.355L135.499 229.404L134.507 229.28ZM118.891 228L118.973 227.003L118.895 226.997L118.818 227.003L118.891 228ZM101.355 229.28L100.356 229.23L100.3 230.36L101.428 230.277L101.355 229.28ZM101.611 224.16L101.377 223.188L100.65 223.363L100.612 224.11L101.611 224.16ZM112.235 221.6L112.469 222.572L113.216 222.392L113.235 221.624L112.235 221.6ZM113.131 184.992L114.131 185.016L114.131 184.991L114.131 184.967L113.131 184.992ZM112.107 144.8L113.107 144.775L113.087 144.017L112.352 143.831L112.107 144.8ZM101.995 142.24L101.003 142.116L100.893 142.993L101.75 143.209L101.995 142.24ZM102.635 137.12L102.717 136.123L101.762 136.045L101.643 136.996L102.635 137.12ZM118.251 138.4L118.169 139.397L118.247 139.403L118.324 139.397L118.251 138.4ZM135.787 137.12L136.786 137.17L136.842 136.04L135.714 136.123L135.787 137.12ZM135.531 142.24L135.763 143.213L136.492 143.039L136.53 142.29L135.531 142.24ZM124.779 144.8L124.547 143.827L123.798 144.006L123.779 144.776L124.779 144.8ZM123.883 181.92L122.883 181.896L122.855 183.088L124.034 182.909L123.883 181.92ZM131.435 180.768L131.586 181.757L131.975 181.697L132.219 181.389L131.435 180.768ZM153.835 152.48L154.619 153.101L154.679 153.025L154.724 152.938L153.835 152.48ZM158.059 144.288L158.948 144.746L159.524 143.628L158.305 143.319L158.059 144.288ZM149.995 142.24L149.003 142.116L148.893 142.992L149.749 143.209L149.995 142.24ZM150.635 137.12L150.715 136.123L149.761 136.046L149.643 136.996L150.635 137.12ZM166.507 138.4L166.427 139.397L166.515 139.404L166.603 139.395L166.507 138.4ZM179.819 137.12L180.818 137.17L180.876 136.014L179.723 136.125L179.819 137.12ZM179.563 142.24L179.888 143.186L180.528 142.966L180.562 142.29L179.563 142.24ZM167.275 146.464L166.95 145.518L166.682 145.61L166.503 145.829L167.275 146.464ZM140.348 178.788L170.428 221.028L172.058 219.868L141.978 177.628L140.348 178.788ZM170.954 221.405L183.242 225.117L183.82 223.203L171.532 219.491L170.954 221.405ZM182.539 224.036L181.899 229.156L183.883 229.404L184.523 224.284L182.539 224.036ZM182.973 228.283L167.357 227.003L167.193 228.997L182.809 230.277L182.973 228.283ZM167.209 227.002L147.753 228.282L147.885 230.278L167.341 228.998L167.209 227.002ZM148.818 229.33L149.074 224.21L147.076 224.11L146.82 229.23L148.818 229.33ZM148.321 225.129L157.921 222.697L157.429 220.759L147.829 223.191L148.321 225.129ZM158.543 221.232L153.423 212.272L151.687 213.264L156.807 222.224L158.543 221.232ZM153.375 212.196L135.071 185.956L133.431 187.1L151.735 213.34L153.375 212.196ZM134.127 185.536L123.887 186.816L124.135 188.8L134.375 187.52L134.127 185.536ZM123.011 187.827L123.651 221.619L125.651 221.581L125.011 187.789L123.011 187.827ZM124.414 222.572L134.91 225.132L135.384 223.188L124.888 220.628L124.414 222.572ZM134.155 224.036L133.515 229.156L135.499 229.404L136.139 224.284L134.155 224.036ZM134.589 228.283L118.973 227.003L118.809 228.997L134.425 230.277L134.589 228.283ZM118.818 227.003L101.282 228.283L101.428 230.277L118.964 228.997L118.818 227.003ZM102.354 229.33L102.61 224.21L100.612 224.11L100.356 229.23L102.354 229.33ZM101.845 225.132L112.469 222.572L112.001 220.628L101.377 223.188L101.845 225.132ZM113.235 221.624L114.131 185.016L112.131 184.968L111.235 221.576L113.235 221.624ZM114.131 184.967L113.107 144.775L111.107 144.825L112.131 185.017L114.131 184.967ZM112.352 143.831L102.24 141.271L101.75 143.209L111.862 145.769L112.352 143.831ZM102.987 142.364L103.627 137.244L101.643 136.996L101.003 142.116L102.987 142.364ZM102.553 138.117L118.169 139.397L118.333 137.403L102.717 136.123L102.553 138.117ZM118.324 139.397L135.86 138.117L135.714 136.123L118.178 137.403L118.324 139.397ZM134.788 137.07L134.532 142.19L136.53 142.29L136.786 137.17L134.788 137.07ZM135.299 141.267L124.547 143.827L125.011 145.773L135.763 143.213L135.299 141.267ZM123.779 144.776L122.883 181.896L124.883 181.944L125.779 144.824L123.779 144.776ZM124.034 182.909L131.586 181.757L131.284 179.779L123.732 180.931L124.034 182.909ZM132.219 181.389L154.619 153.101L153.051 151.859L130.651 180.147L132.219 181.389ZM154.724 152.938L158.948 144.746L157.17 143.83L152.946 152.022L154.724 152.938ZM158.305 143.319L150.241 141.271L149.749 143.209L157.813 145.257L158.305 143.319ZM150.987 142.364L151.627 137.244L149.643 136.996L149.003 142.116L150.987 142.364ZM150.555 138.117L166.427 139.397L166.587 137.403L150.715 136.123L150.555 138.117ZM166.603 139.395L179.915 138.115L179.723 136.125L166.411 137.405L166.603 139.395ZM178.82 137.07L178.564 142.19L180.562 142.29L180.818 137.17L178.82 137.07ZM179.238 141.294L166.95 145.518L167.6 147.41L179.888 143.186L179.238 141.294ZM166.503 145.829L140.391 177.573L141.935 178.843L168.047 147.099L166.503 145.829Z" fill="black" mask="url(#path-1-outside-1_1669_162202)"/>
<mask id="path-3-outside-2_1669_162202" maskUnits="userSpaceOnUse" x="159" y="181" width="85" height="95" fill="black">
<rect fill="white" x="159" y="181" width="85" height="95"/>
<path d="M202.837 223.208L172.757 265.448L160.469 269.16L161.109 274.28L176.725 273L196.181 274.28L195.925 269.16L186.325 266.728L191.445 257.768L209.749 231.528L219.989 232.808L219.349 266.6L208.853 269.16L209.493 274.28L225.109 273L242.645 274.28L242.389 269.16L231.765 266.6L230.869 229.992L231.893 189.8L242.005 187.24L241.365 182.12L225.749 183.4L208.213 182.12L208.469 187.24L219.221 189.8L220.117 226.92L212.565 225.768L190.165 197.48L185.941 189.288L194.005 187.24L193.365 182.12L177.493 183.4L164.181 182.12L164.437 187.24L176.725 191.464L202.837 223.208Z"/>
</mask>
<path d="M202.837 223.208L172.757 265.448L160.469 269.16L161.109 274.28L176.725 273L196.181 274.28L195.925 269.16L186.325 266.728L191.445 257.768L209.749 231.528L219.989 232.808L219.349 266.6L208.853 269.16L209.493 274.28L225.109 273L242.645 274.28L242.389 269.16L231.765 266.6L230.869 229.992L231.893 189.8L242.005 187.24L241.365 182.12L225.749 183.4L208.213 182.12L208.469 187.24L219.221 189.8L220.117 226.92L212.565 225.768L190.165 197.48L185.941 189.288L194.005 187.24L193.365 182.12L177.493 183.4L164.181 182.12L164.437 187.24L176.725 191.464L202.837 223.208Z" fill="black"/>
<path d="M202.837 223.208L203.609 222.573L204.096 223.164L203.652 223.788L202.837 223.208ZM172.757 265.448L173.572 266.028L173.373 266.306L173.046 266.405L172.757 265.448ZM160.469 269.16L159.477 269.284L159.372 268.447L160.18 268.203L160.469 269.16ZM161.109 274.28L161.191 275.277L160.236 275.355L160.117 274.404L161.109 274.28ZM176.725 273L176.643 272.003L176.717 271.997L176.791 272.002L176.725 273ZM196.181 274.28L197.18 274.23L197.236 275.352L196.115 275.278L196.181 274.28ZM195.925 269.16L196.171 268.191L196.887 268.372L196.924 269.11L195.925 269.16ZM186.325 266.728L186.079 267.697L184.804 267.374L185.457 266.232L186.325 266.728ZM191.445 257.768L190.577 257.272L190.599 257.233L190.625 257.196L191.445 257.768ZM209.749 231.528L208.929 230.956L209.274 230.461L209.873 230.536L209.749 231.528ZM219.989 232.808L220.113 231.816L221.006 231.927L220.989 232.827L219.989 232.808ZM219.349 266.6L220.349 266.619L220.334 267.389L219.586 267.572L219.349 266.6ZM208.853 269.16L207.861 269.284L207.75 268.4L208.616 268.188L208.853 269.16ZM209.493 274.28L209.575 275.277L208.62 275.355L208.501 274.404L209.493 274.28ZM225.109 273L225.027 272.003L225.105 271.997L225.182 272.003L225.109 273ZM242.645 274.28L243.644 274.23L243.7 275.36L242.572 275.277L242.645 274.28ZM242.389 269.16L242.623 268.188L243.35 268.363L243.388 269.11L242.389 269.16ZM231.765 266.6L231.531 267.572L230.784 267.392L230.765 266.624L231.765 266.6ZM230.869 229.992L229.869 230.016L229.869 229.991L229.869 229.967L230.869 229.992ZM231.893 189.8L230.893 189.775L230.913 189.017L231.648 188.831L231.893 189.8ZM242.005 187.24L242.997 187.116L243.107 187.993L242.25 188.209L242.005 187.24ZM241.365 182.12L241.283 181.123L242.238 181.045L242.357 181.996L241.365 182.12ZM225.749 183.4L225.831 184.397L225.753 184.403L225.676 184.397L225.749 183.4ZM208.213 182.12L207.214 182.17L207.158 181.04L208.286 181.123L208.213 182.12ZM208.469 187.24L208.237 188.213L207.508 188.039L207.47 187.29L208.469 187.24ZM219.221 189.8L219.453 188.827L220.202 189.006L220.221 189.776L219.221 189.8ZM220.117 226.92L221.117 226.896L221.145 228.088L219.966 227.909L220.117 226.92ZM212.565 225.768L212.414 226.757L212.025 226.697L211.781 226.389L212.565 225.768ZM190.165 197.48L189.381 198.101L189.321 198.025L189.276 197.938L190.165 197.48ZM185.941 189.288L185.052 189.746L184.476 188.628L185.695 188.319L185.941 189.288ZM194.005 187.24L194.997 187.116L195.107 187.992L194.251 188.209L194.005 187.24ZM193.365 182.12L193.285 181.123L194.239 181.046L194.357 181.996L193.365 182.12ZM177.493 183.4L177.573 184.397L177.485 184.404L177.397 184.395L177.493 183.4ZM164.181 182.12L163.182 182.17L163.124 181.014L164.277 181.125L164.181 182.12ZM164.437 187.24L164.112 188.186L163.472 187.966L163.438 187.29L164.437 187.24ZM176.725 191.464L177.05 190.518L177.318 190.61L177.497 190.829L176.725 191.464ZM203.652 223.788L173.572 266.028L171.942 264.868L202.022 222.628L203.652 223.788ZM173.046 266.405L160.758 270.117L160.18 268.203L172.468 264.491L173.046 266.405ZM161.461 269.036L162.101 274.156L160.117 274.404L159.477 269.284L161.461 269.036ZM161.027 273.283L176.643 272.003L176.807 273.997L161.191 275.277L161.027 273.283ZM176.791 272.002L196.247 273.282L196.115 275.278L176.659 273.998L176.791 272.002ZM195.182 274.33L194.926 269.21L196.924 269.11L197.18 274.23L195.182 274.33ZM195.679 270.129L186.079 267.697L186.571 265.759L196.171 268.191L195.679 270.129ZM185.457 266.232L190.577 257.272L192.313 258.264L187.193 267.224L185.457 266.232ZM190.625 257.196L208.929 230.956L210.569 232.1L192.265 258.34L190.625 257.196ZM209.873 230.536L220.113 231.816L219.865 233.8L209.625 232.52L209.873 230.536ZM220.989 232.827L220.349 266.619L218.349 266.581L218.989 232.789L220.989 232.827ZM219.586 267.572L209.09 270.132L208.616 268.188L219.112 265.628L219.586 267.572ZM209.845 269.036L210.485 274.156L208.501 274.404L207.861 269.284L209.845 269.036ZM209.411 273.283L225.027 272.003L225.191 273.997L209.575 275.277L209.411 273.283ZM225.182 272.003L242.718 273.283L242.572 275.277L225.036 273.997L225.182 272.003ZM241.646 274.33L241.39 269.21L243.388 269.11L243.644 274.23L241.646 274.33ZM242.155 270.132L231.531 267.572L231.999 265.628L242.623 268.188L242.155 270.132ZM230.765 266.624L229.869 230.016L231.869 229.968L232.765 266.576L230.765 266.624ZM229.869 229.967L230.893 189.775L232.893 189.825L231.869 230.017L229.869 229.967ZM231.648 188.831L241.76 186.271L242.25 188.209L232.138 190.769L231.648 188.831ZM241.013 187.364L240.373 182.244L242.357 181.996L242.997 187.116L241.013 187.364ZM241.447 183.117L225.831 184.397L225.667 182.403L241.283 181.123L241.447 183.117ZM225.676 184.397L208.14 183.117L208.286 181.123L225.822 182.403L225.676 184.397ZM209.212 182.07L209.468 187.19L207.47 187.29L207.214 182.17L209.212 182.07ZM208.701 186.267L219.453 188.827L218.989 190.773L208.237 188.213L208.701 186.267ZM220.221 189.776L221.117 226.896L219.117 226.944L218.221 189.824L220.221 189.776ZM219.966 227.909L212.414 226.757L212.716 224.779L220.268 225.931L219.966 227.909ZM211.781 226.389L189.381 198.101L190.949 196.859L213.349 225.147L211.781 226.389ZM189.276 197.938L185.052 189.746L186.83 188.83L191.054 197.022L189.276 197.938ZM185.695 188.319L193.759 186.271L194.251 188.209L186.187 190.257L185.695 188.319ZM193.013 187.364L192.373 182.244L194.357 181.996L194.997 187.116L193.013 187.364ZM193.445 183.117L177.573 184.397L177.413 182.403L193.285 181.123L193.445 183.117ZM177.397 184.395L164.085 183.115L164.277 181.125L177.589 182.405L177.397 184.395ZM165.18 182.07L165.436 187.19L163.438 187.29L163.182 182.17L165.18 182.07ZM164.762 186.294L177.05 190.518L176.4 192.41L164.112 188.186L164.762 186.294ZM177.497 190.829L203.609 222.573L202.065 223.843L175.953 192.099L177.497 190.829Z" fill="black" mask="url(#path-3-outside-2_1669_162202)"/>
</g>
<path d="M257.916 205.552L265.436 216.112L268.508 217.04L268.348 218.32L264.444 218L259.58 218.32L259.644 217.04L262.044 216.432L260.764 214.192L256.188 207.632L253.628 207.952L253.788 216.4L256.412 217.04L256.252 218.32L252.348 218L247.964 218.32L248.028 217.04L250.684 216.4L250.908 207.248L250.652 197.2L248.124 196.56L248.284 195.28L252.188 195.6L256.572 195.28L256.508 196.56L253.82 197.2L253.596 206.48L255.484 206.192L261.084 199.12L262.14 197.072L260.124 196.56L260.284 195.28L264.252 195.6L267.58 195.28L267.516 196.56L264.444 197.616L257.916 205.552ZM274.454 198.384L274.262 209.584L274.358 212.688L274.614 216.4L276.95 217.04L276.79 218.16L272.886 218L268.982 218.16L269.046 217.04L271.158 216.4L271.318 213.04L271.446 206.032L271.254 198.896L271.094 195.696L268.822 195.792L268.662 194.672L273.078 193.808L274.678 194.16L274.454 198.384ZM278.592 211.92V207.728L280.48 203.92L284.096 201.52L288.48 201.36L292.48 203.76L294.56 207.6L294.176 213.456L291.808 217.232L286.848 218.64L282.688 217.84L279.648 215.088L278.592 211.92ZM282.112 206.64L281.952 210.224L282.336 213.936L283.712 216.336L287.104 217.168L290.24 215.792L291.168 210.8L290.848 206.64L289.664 203.984L287.328 202.8L284.128 203.152L282.112 206.64ZM299.205 216.752L301.861 217.168L304.837 216.752L305.541 214.576L304.677 212.912L298.725 209.296L297.445 207.28L297.381 203.888L299.653 201.968L303.013 201.36L307.717 202.32L307.045 207.024L305.701 206.576L305.093 203.248L302.885 202.832L300.485 203.376L299.877 205.136L300.645 207.024L306.789 210.544L308.293 212.432L308.421 215.44L306.245 218L302.405 218.64L299.749 218.512L296.773 217.36L297.573 212.752L298.949 213.2L299.205 216.752ZM317.946 218.32L315.77 218.64L313.498 217.872L312.474 215.312L312.634 209.36L312.474 203.984L310.266 203.664L310.074 202.544L312.602 201.872L313.754 198.64H315.386L315.29 202.224L319.162 202.352L318.97 203.76L315.61 203.984L315.482 205.456L315.61 215.152L316.25 217.072L319.258 216.272L319.738 217.232L317.946 218.32ZM324.386 209.392L324.354 209.68L325.218 214.192L327.746 216.688L330.69 217.008L333.698 215.408L334.274 216.24L331.746 218.256L328.738 218.64L325.602 217.904L322.882 215.632L321.25 210.832L321.794 206.544L323.458 203.536L326.818 201.68L329.634 201.328L331.874 202.032L333.602 203.6L334.594 206.448L334.626 209.104L334.178 209.456L329.922 209.744L324.386 209.392ZM325.986 204.208L324.738 206.64L324.546 208.08L329.41 208.144L331.618 207.664L331.426 204.688L330.466 203.056L328.418 202.768L325.986 204.208ZM342.245 204.624H342.373L344.357 202.352L346.533 201.392L348.933 202L348.389 206.768L347.269 206.544L346.469 203.248L344.389 203.92L342.117 206.576L341.957 209.584L342.053 212.688L342.181 216.4L345.381 217.04L345.221 218.16L340.581 218L336.677 218.16L336.741 217.04L338.853 216.4L339.013 213.04L338.949 206.896L338.789 203.568L336.517 203.664L336.357 202.544L340.773 201.68L342.373 202.032L342.245 204.624ZM359.583 205.456L361.055 203.312L358.911 202.96L359.071 201.84L362.431 202L365.375 201.84L365.311 202.96L363.071 203.664L358.495 208.592L361.151 212.336L364.447 216.4L366.335 217.04L366.175 218.16L362.847 218L359.807 218.16L359.871 217.04L361.407 216.944L360.543 215.344L356.831 210.416H355.263L355.327 212.688L355.391 216.4L357.599 217.04L357.407 218.16L353.855 218L349.759 218.16L349.887 217.04L352.127 216.496L352.223 213.04L352.351 206.032L352.223 198.896L352.063 195.696L349.791 195.792L349.631 194.672L354.047 193.808L355.647 194.16L355.423 198.384L355.231 209.168H356.223L359.583 205.456ZM372.611 198.384L372.419 209.584L372.515 212.688L372.771 216.4L375.107 217.04L374.947 218.16L371.043 218L367.139 218.16L367.203 217.04L369.315 216.4L369.475 213.04L369.603 206.032L369.411 198.896L369.251 195.696L366.979 195.792L366.819 194.672L371.235 193.808L372.835 194.16L372.611 198.384ZM380.332 216.208L382.732 216.816L385.964 214.96L385.836 210.64H383.052L380.588 211.632L379.468 213.616L380.332 216.208ZM388.588 212.176L388.812 216.688L391.02 217.008L390.796 218.064L386.348 218.448L385.932 216.56H385.772L382.604 218.448H379.276L377.036 216.816L376.364 213.68L377.772 211.184L381.612 209.52L385.836 209.36L385.708 205.36L385.1 203.376L382.508 202.64L379.404 203.376L379.308 206.768L378.06 207.024L377.228 202.64L380.908 201.552L385.036 201.36L387.532 202.576L388.556 205.328L388.588 212.176ZM399.727 218.32L397.551 218.64L395.279 217.872L394.255 215.312L394.415 209.36L394.255 203.984L392.047 203.664L391.855 202.544L394.383 201.872L395.535 198.64H397.167L397.071 202.224L400.943 202.352L400.751 203.76L397.391 203.984L397.263 205.456L397.391 215.152L398.031 217.072L401.039 216.272L401.519 217.232L399.727 218.32ZM405.143 216.752L407.799 217.168L410.775 216.752L411.479 214.576L410.615 212.912L404.663 209.296L403.383 207.28L403.319 203.888L405.591 201.968L408.951 201.36L413.655 202.32L412.983 207.024L411.639 206.576L411.031 203.248L408.823 202.832L406.423 203.376L405.815 205.136L406.583 207.024L412.727 210.544L414.231 212.432L414.359 215.44L412.183 218L408.343 218.64L405.687 218.512L402.711 217.36L403.511 212.752L404.887 213.2L405.143 216.752ZM427.627 203.184L423.595 202.864L420.715 205.936L419.883 209.264L420.299 212.656L422.347 216.368L426.283 217.008L429.291 215.408L429.867 216.24L427.339 218.256L424.331 218.64L419.755 217.328L416.907 212.688L416.875 207.344L419.051 203.536L422.411 201.776L425.323 201.36L430.219 202L429.259 207.024L428.203 207.184L427.627 203.184ZM437.047 198.512L436.951 203.76L440.503 201.584L443.767 201.36L446.711 203.376L447.191 205.936L447.127 212.688L447.383 216.432L449.655 217.04L449.495 218.16L445.719 218L441.815 218.16L441.879 217.04L443.991 216.4L444.215 213.04L444.087 206.064L443.223 203.952L440.503 203.472L436.919 205.296L436.855 209.584L436.919 212.688L437.015 216.4L439.351 217.04L439.191 218.16L435.415 218L431.511 218.16L431.575 217.04L433.687 216.4L433.975 213.04L433.847 199.024L433.623 195.696L431.351 195.792L431.191 194.672L435.607 193.808L437.207 194.16L437.047 198.512Z" fill="black"/>
<rect x="7" y="3" width="60.9219" height="30" rx="3" fill="white"/>
<rect x="7.5" y="3.5" width="59.9219" height="29" rx="2.5" stroke="black" stroke-opacity="0.14902"/>
<path d="M18.3438 15C18.2969 14.6042 18.1068 14.2969 17.7734 14.0781C17.4401 13.8594 17.0313 13.75 16.5469 13.75C16.1927 13.75 15.8828 13.8073 15.6172 13.9219C15.3542 14.0365 15.1484 14.194 15 14.3945C14.8542 14.5951 14.7813 14.8229 14.7813 15.0781C14.7813 15.2917 14.832 15.4753 14.9336 15.6289C15.0378 15.7799 15.1706 15.9062 15.332 16.0078C15.4935 16.1068 15.6628 16.1888 15.8398 16.2539C16.0169 16.3164 16.1797 16.3672 16.3281 16.4062L17.1406 16.625C17.349 16.6797 17.5807 16.7552 17.8359 16.8516C18.0938 16.9479 18.3398 17.0794 18.5742 17.2461C18.8112 17.4102 19.0065 17.6211 19.1602 17.8789C19.3138 18.1367 19.3906 18.4531 19.3906 18.8281C19.3906 19.2604 19.2773 19.651 19.0508 20C18.8268 20.349 18.4987 20.6263 18.0664 20.832C17.6367 21.0378 17.1146 21.1406 16.5 21.1406C15.9271 21.1406 15.431 21.0482 15.0117 20.8633C14.5951 20.6784 14.2669 20.4206 14.0273 20.0898C13.7904 19.7591 13.6563 19.375 13.625 18.9375H14.625C14.651 19.2396 14.7526 19.4896 14.9297 19.6875C15.1094 19.8828 15.3359 20.0286 15.6094 20.125C15.8854 20.2187 16.1823 20.2656 16.5 20.2656C16.8698 20.2656 17.2018 20.2057 17.4961 20.0859C17.7904 19.9635 18.0234 19.7943 18.1953 19.5781C18.3672 19.3594 18.4531 19.1042 18.4531 18.8125C18.4531 18.5469 18.3789 18.3307 18.2305 18.1641C18.082 17.9974 17.8867 17.862 17.6445 17.7578C17.4023 17.6536 17.1406 17.5625 16.8594 17.4844L15.875 17.2031C15.25 17.0234 14.7552 16.7669 14.3906 16.4336C14.026 16.1003 13.8438 15.6641 13.8438 15.125C13.8438 14.6771 13.9648 14.2865 14.207 13.9531C14.4518 13.6172 14.7799 13.3568 15.1914 13.1719C15.6055 12.9844 16.0677 12.8906 16.5781 12.8906C17.0938 12.8906 17.5521 12.9831 17.9531 13.168C18.3542 13.3503 18.6719 13.6003 18.9062 13.918C19.1432 14.2357 19.2682 14.5964 19.2813 15H18.3438ZM23.374 21.125C22.7959 21.125 22.2972 20.9974 21.8779 20.7422C21.4613 20.4844 21.1396 20.125 20.9131 19.6641C20.6891 19.2005 20.5771 18.6615 20.5771 18.0469C20.5771 17.4323 20.6891 16.8906 20.9131 16.4219C21.1396 15.9505 21.4548 15.5833 21.8584 15.3203C22.2646 15.0547 22.7386 14.9219 23.2803 14.9219C23.5928 14.9219 23.9014 14.974 24.2061 15.0781C24.5107 15.1823 24.7881 15.3516 25.0381 15.5859C25.2881 15.8177 25.4873 16.125 25.6357 16.5078C25.7842 16.8906 25.8584 17.362 25.8584 17.9219V18.3125H21.2334V17.5156H24.9209C24.9209 17.1771 24.8532 16.875 24.7178 16.6094C24.585 16.3437 24.3949 16.1341 24.1475 15.9805C23.9027 15.8268 23.6136 15.75 23.2803 15.75C22.9131 15.75 22.5954 15.8411 22.3271 16.0234C22.0615 16.2031 21.8571 16.4375 21.7139 16.7266C21.5706 17.0156 21.499 17.3255 21.499 17.6562V18.1875C21.499 18.6406 21.5771 19.0247 21.7334 19.3398C21.8923 19.6523 22.1123 19.8906 22.3936 20.0547C22.6748 20.2161 23.0016 20.2969 23.374 20.2969C23.6162 20.2969 23.835 20.263 24.0303 20.1953C24.2282 20.125 24.3988 20.0208 24.542 19.8828C24.6852 19.7422 24.7959 19.5677 24.874 19.3594L25.7646 19.6094C25.6709 19.9115 25.5133 20.1771 25.292 20.4062C25.0706 20.6328 24.7972 20.8099 24.4717 20.9375C24.1462 21.0625 23.7803 21.125 23.374 21.125ZM29.6982 21.125C29.1357 21.125 28.6514 20.9922 28.2451 20.7266C27.8389 20.4609 27.5264 20.0951 27.3076 19.6289C27.0889 19.1628 26.9795 18.6302 26.9795 18.0312C26.9795 17.4219 27.0915 16.8841 27.3154 16.418C27.542 15.9492 27.8571 15.5833 28.2607 15.3203C28.667 15.0547 29.141 14.9219 29.6826 14.9219C30.1045 14.9219 30.4847 15 30.8232 15.1562C31.1618 15.3125 31.4391 15.5312 31.6553 15.8125C31.8714 16.0937 32.0055 16.4219 32.0576 16.7969H31.1357C31.0654 16.5234 30.9092 16.2812 30.667 16.0703C30.4274 15.8568 30.1045 15.75 29.6982 15.75C29.3389 15.75 29.0238 15.8437 28.7529 16.0312C28.4847 16.2161 28.2751 16.4779 28.124 16.8164C27.9756 17.1523 27.9014 17.5469 27.9014 18C27.9014 18.4635 27.9743 18.8672 28.1201 19.2109C28.2686 19.5547 28.4769 19.8216 28.7451 20.0117C29.016 20.2018 29.3337 20.2969 29.6982 20.2969C29.9378 20.2969 30.1553 20.2552 30.3506 20.1719C30.5459 20.0885 30.7113 19.9688 30.8467 19.8125C30.9821 19.6562 31.0785 19.4687 31.1357 19.25H32.0576C32.0055 19.6042 31.8766 19.9232 31.6709 20.207C31.4678 20.4883 31.1982 20.7122 30.8623 20.8789C30.529 21.043 30.141 21.125 29.6982 21.125ZM36.0146 15V15.7812H32.9053V15H36.0146ZM33.8115 13.5625H34.7334V19.2812C34.7334 19.5417 34.7712 19.737 34.8467 19.8672C34.9248 19.9948 35.0238 20.0807 35.1436 20.125C35.266 20.1667 35.3949 20.1875 35.5303 20.1875C35.6318 20.1875 35.7152 20.1823 35.7803 20.1719C35.8454 20.1589 35.8975 20.1484 35.9365 20.1406L36.124 20.9687C36.0615 20.9922 35.9743 21.0156 35.8623 21.0391C35.7503 21.0651 35.6084 21.0781 35.4365 21.0781C35.1761 21.0781 34.9209 21.0221 34.6709 20.9102C34.4235 20.7982 34.2178 20.6276 34.0537 20.3984C33.8923 20.1693 33.8115 19.8802 33.8115 19.5312V13.5625ZM37.4014 21V15H38.3232V21H37.4014ZM37.8701 14C37.6904 14 37.5355 13.9388 37.4053 13.8164C37.2777 13.694 37.2139 13.5469 37.2139 13.375C37.2139 13.2031 37.2777 13.056 37.4053 12.9336C37.5355 12.8112 37.6904 12.75 37.8701 12.75C38.0498 12.75 38.2035 12.8112 38.3311 12.9336C38.4613 13.056 38.5264 13.2031 38.5264 13.375C38.5264 13.5469 38.4613 13.694 38.3311 13.8164C38.2035 13.9388 38.0498 14 37.8701 14ZM42.4492 21.125C41.9076 21.125 41.4323 20.9961 41.0234 20.7383C40.6172 20.4805 40.2995 20.1198 40.0703 19.6562C39.8438 19.1927 39.7305 18.651 39.7305 18.0312C39.7305 17.4062 39.8438 16.8607 40.0703 16.3945C40.2995 15.9284 40.6172 15.5664 41.0234 15.3086C41.4323 15.0508 41.9076 14.9219 42.4492 14.9219C42.9909 14.9219 43.4648 15.0508 43.8711 15.3086C44.2799 15.5664 44.5977 15.9284 44.8242 16.3945C45.0534 16.8607 45.168 17.4062 45.168 18.0312C45.168 18.651 45.0534 19.1927 44.8242 19.6562C44.5977 20.1198 44.2799 20.4805 43.8711 20.7383C43.4648 20.9961 42.9909 21.125 42.4492 21.125ZM42.4492 20.2969C42.8607 20.2969 43.1992 20.1914 43.4648 19.9805C43.7305 19.7695 43.9271 19.4922 44.0547 19.1484C44.1823 18.8047 44.2461 18.4323 44.2461 18.0312C44.2461 17.6302 44.1823 17.2565 44.0547 16.9102C43.9271 16.5638 43.7305 16.2839 43.4648 16.0703C43.1992 15.8568 42.8607 15.75 42.4492 15.75C42.0378 15.75 41.6992 15.8568 41.4336 16.0703C41.168 16.2839 40.9714 16.5638 40.8438 16.9102C40.7161 17.2565 40.6523 17.6302 40.6523 18.0312C40.6523 18.4323 40.7161 18.8047 40.8438 19.1484C40.9714 19.4922 41.168 19.7695 41.4336 19.9805C41.6992 20.1914 42.0378 20.2969 42.4492 20.2969ZM47.4971 17.3906V21H46.5752V15H47.4658V15.9375H47.5439C47.6846 15.6328 47.8981 15.388 48.1846 15.2031C48.471 15.0156 48.8408 14.9219 49.2939 14.9219C49.7002 14.9219 50.0557 15.0052 50.3604 15.1719C50.665 15.3359 50.902 15.5859 51.0713 15.9219C51.2406 16.2552 51.3252 16.6771 51.3252 17.1875V21H50.4033V17.25C50.4033 16.7786 50.2809 16.4115 50.0361 16.1484C49.7913 15.8828 49.4554 15.75 49.0283 15.75C48.734 15.75 48.471 15.8138 48.2393 15.9414C48.0101 16.069 47.8291 16.2552 47.6963 16.5C47.5635 16.7448 47.4971 17.0417 47.4971 17.3906ZM56.0879 21V20.2969L58.7285 17.4062C59.0384 17.0677 59.2936 16.7734 59.4941 16.5234C59.6947 16.2708 59.8431 16.0339 59.9395 15.8125C60.0384 15.5885 60.0879 15.3542 60.0879 15.1094C60.0879 14.8281 60.0202 14.5846 59.8848 14.3789C59.752 14.1732 59.5697 14.0143 59.3379 13.9023C59.1061 13.7904 58.8457 13.7344 58.5566 13.7344C58.2493 13.7344 57.9811 13.7982 57.752 13.9258C57.5254 14.0508 57.3496 14.2266 57.2246 14.4531C57.1022 14.6797 57.041 14.9453 57.041 15.25H56.1191C56.1191 14.7812 56.2272 14.3698 56.4434 14.0156C56.6595 13.6615 56.9538 13.3854 57.3262 13.1875C57.7012 12.9896 58.1217 12.8906 58.5879 12.8906C59.0566 12.8906 59.472 12.9896 59.834 13.1875C60.196 13.3854 60.4798 13.6523 60.6855 13.9883C60.8913 14.3242 60.9941 14.6979 60.9941 15.1094C60.9941 15.4036 60.9408 15.6914 60.834 15.9727C60.7298 16.2513 60.5475 16.5625 60.2871 16.9062C60.0293 17.2474 59.6712 17.6641 59.2129 18.1562L57.416 20.0781V20.1406H61.1348V21H56.0879Z" fill="black"/>
<defs>
<filter id="filter0_d_1669_162202" x="0" y="0" width="409" height="463" filterUnits="userSpaceOnUse" color-interpolation-filters="sRGB">
<feFlood flood-opacity="0" result="BackgroundImageFix"/>
<feColorMatrix in="SourceAlpha" type="matrix" values="0 0 0 0 0 0 0 0 0 0 0 0 0 0 0 0 0 0 127 0" result="hardAlpha"/>
<feOffset dy="4"/>
<feGaussianBlur stdDeviation="2"/>
<feComposite in2="hardAlpha" operator="out"/>
<feColorMatrix type="matrix" values="0 0 0 0 0 0 0 0 0 0 0 0 0 0 0 0 0 0 0.25 0"/>
<feBlend mode="normal" in2="BackgroundImageFix" result="effect1_dropShadow_1669_162202"/>
<feBlend mode="normal" in="SourceGraphic" in2="effect1_dropShadow_1669_162202" result="shape"/>
</filter>
</defs>
</svg>
